<svg xmlns="http://www.w3.org/2000/svg" xmlns:xlink="http://www.w3.org/1999/xlink" width="396" zoomAndPan="magnify" viewBox="0 0 297 87.749997" height="117" preserveAspectRatio="xMidYMid meet" version="1.0"><defs><g/></defs><g fill="#ffffff" fill-opacity="1"><g transform="translate(18.962483, 57.718398)"><g><path d="M 13.15625 0 L 0.828125 0 C 1.304688 -0.414062 1.671875 -1.125 1.921875 -2.125 C 2.171875 -3.125 2.296875 -4.140625 2.296875 -5.171875 L 2.296875 -35.109375 C 2.296875 -36.171875 2.171875 -37.191406 1.921875 -38.171875 C 1.671875 -39.160156 1.304688 -39.863281 0.828125 -40.28125 L 13.15625 -40.28125 C 12.675781 -39.863281 12.3125 -39.15625 12.0625 -38.15625 C 11.8125 -37.15625 11.6875 -36.125 11.6875 -35.0625 L 11.6875 -24.25 L 22.625 -24.25 L 22.625 -35.109375 C 22.625 -36.171875 22.5 -37.191406 22.25 -38.171875 C 22 -39.160156 21.640625 -39.863281 21.171875 -40.28125 L 33.484375 -40.28125 C 33.015625 -39.863281 32.648438 -39.15625 32.390625 -38.15625 C 32.140625 -37.15625 32.015625 -36.125 32.015625 -35.0625 L 32.015625 -5.21875 C 32.015625 -4.1875 32.140625 -3.160156 32.390625 -2.140625 C 32.648438 -1.128906 33.015625 -0.414062 33.484375 0 L 21.171875 0 C 21.640625 -0.414062 22 -1.125 22.25 -2.125 C 22.5 -3.125 22.625 -4.140625 22.625 -5.171875 L 22.625 -16.734375 L 11.6875 -16.734375 L 11.6875 -5.21875 C 11.6875 -4.1875 11.8125 -3.160156 12.0625 -2.140625 C 12.3125 -1.128906 12.675781 -0.414062 13.15625 0 Z M 13.15625 0 "/></g></g></g><g fill="#ffffff" fill-opacity="1"><g transform="translate(53.273199, 57.718398)"><g><path d="M 15.40625 0.625 C 12.59375 0.625 10.117188 -0.00390625 7.984375 -1.265625 C 5.859375 -2.535156 4.203125 -4.316406 3.015625 -6.609375 C 1.835938 -8.910156 1.25 -11.578125 1.25 -14.609375 C 1.25 -17.671875 1.835938 -20.34375 3.015625 -22.625 C 4.203125 -24.90625 5.859375 -26.675781 7.984375 -27.9375 C 10.117188 -29.207031 12.59375 -29.84375 15.40625 -29.84375 C 18.25 -29.84375 20.734375 -29.207031 22.859375 -27.9375 C 24.984375 -26.675781 26.632812 -24.90625 27.8125 -22.625 C 29 -20.34375 29.59375 -17.671875 29.59375 -14.609375 C 29.59375 -11.578125 29 -8.910156 27.8125 -6.609375 C 26.632812 -4.316406 24.984375 -2.535156 22.859375 -1.265625 C 20.734375 -0.00390625 18.25 0.625 15.40625 0.625 Z M 10.015625 -14.578125 C 10.015625 -12.367188 10.492188 -10.597656 11.453125 -9.265625 C 12.421875 -7.929688 13.738281 -7.265625 15.40625 -7.265625 C 17.070312 -7.265625 18.390625 -7.929688 19.359375 -9.265625 C 20.335938 -10.597656 20.828125 -12.367188 20.828125 -14.578125 C 20.828125 -16.796875 20.335938 -18.570312 19.359375 -19.90625 C 18.390625 -21.25 17.070312 -21.921875 15.40625 -21.921875 C 13.738281 -21.921875 12.421875 -21.25 11.453125 -19.90625 C 10.492188 -18.570312 10.015625 -16.796875 10.015625 -14.578125 Z M 10.015625 -14.578125 "/></g></g></g><g fill="#ffffff" fill-opacity="1"><g transform="translate(84.119451, 57.718398)"><g><path d="M 0.828125 -20.546875 C 0.828125 -22.128906 1.175781 -23.503906 1.875 -24.671875 C 2.570312 -25.835938 3.507812 -26.800781 4.6875 -27.5625 C 5.875 -28.332031 7.179688 -28.90625 8.609375 -29.28125 C 10.046875 -29.65625 11.519531 -29.84375 13.03125 -29.84375 C 14.332031 -29.84375 15.6875 -29.722656 17.09375 -29.484375 C 18.5 -29.253906 19.832031 -28.929688 21.09375 -28.515625 C 22.363281 -28.097656 23.429688 -27.597656 24.296875 -27.015625 C 24.046875 -26.316406 23.757812 -25.472656 23.4375 -24.484375 C 23.125 -23.492188 22.828125 -22.476562 22.546875 -21.4375 C 22.265625 -20.394531 22.023438 -19.425781 21.828125 -18.53125 C 21.472656 -18.925781 20.90625 -19.335938 20.125 -19.765625 C 19.34375 -20.203125 18.453125 -20.609375 17.453125 -20.984375 C 16.453125 -21.359375 15.421875 -21.671875 14.359375 -21.921875 C 13.304688 -22.171875 12.316406 -22.296875 11.390625 -22.296875 C 9.972656 -22.296875 9.265625 -21.847656 9.265625 -20.953125 C 9.265625 -20.484375 9.625 -20.085938 10.34375 -19.765625 C 11.070312 -19.441406 12.003906 -19.117188 13.140625 -18.796875 C 14.285156 -18.484375 15.5 -18.101562 16.78125 -17.65625 C 18.0625 -17.21875 19.269531 -16.648438 20.40625 -15.953125 C 21.550781 -15.253906 22.484375 -14.367188 23.203125 -13.296875 C 23.929688 -12.222656 24.296875 -10.894531 24.296875 -9.3125 C 24.296875 -7.75 23.941406 -6.347656 23.234375 -5.109375 C 22.523438 -3.867188 21.570312 -2.820312 20.375 -1.96875 C 19.175781 -1.125 17.832031 -0.476562 16.34375 -0.03125 C 14.851562 0.40625 13.332031 0.625 11.78125 0.625 C 9.570312 0.625 7.617188 0.363281 5.921875 -0.15625 C 4.222656 -0.6875 2.523438 -1.46875 0.828125 -2.5 C 1.273438 -3.757812 1.664062 -5.085938 2 -6.484375 C 2.332031 -7.890625 2.640625 -9.25 2.921875 -10.5625 C 3.304688 -10.257812 3.984375 -9.847656 4.953125 -9.328125 C 5.929688 -8.816406 7.085938 -8.359375 8.421875 -7.953125 C 9.765625 -7.546875 11.160156 -7.34375 12.609375 -7.34375 C 13.023438 -7.34375 13.484375 -7.367188 13.984375 -7.421875 C 14.484375 -7.484375 14.914062 -7.609375 15.28125 -7.796875 C 15.644531 -7.992188 15.828125 -8.300781 15.828125 -8.71875 C 15.828125 -9.25 15.460938 -9.675781 14.734375 -10 C 14.015625 -10.320312 13.082031 -10.628906 11.9375 -10.921875 C 10.800781 -11.210938 9.597656 -11.554688 8.328125 -11.953125 C 7.054688 -12.359375 5.847656 -12.898438 4.703125 -13.578125 C 3.566406 -14.265625 2.632812 -15.171875 1.90625 -16.296875 C 1.1875 -17.429688 0.828125 -18.847656 0.828125 -20.546875 Z M 0.828125 -20.546875 "/></g></g></g><g fill="#ffffff" fill-opacity="1"><g transform="translate(109.247247, 57.718398)"><g><path d="M 0 -21.296875 L 0 -29.21875 C 0.78125 -29.550781 1.664062 -30.023438 2.65625 -30.640625 C 3.644531 -31.253906 4.648438 -31.960938 5.671875 -32.765625 C 6.703125 -33.578125 7.660156 -34.421875 8.546875 -35.296875 C 9.441406 -36.171875 10.179688 -37.03125 10.765625 -37.875 L 10.984375 -37.875 L 10.984375 -29.21875 L 17.28125 -29.21875 L 17.28125 -21.296875 L 10.984375 -21.296875 L 10.984375 -11.8125 C 10.984375 -9.914062 11.257812 -8.648438 11.8125 -8.015625 C 12.375 -7.378906 13.164062 -7.0625 14.1875 -7.0625 C 14.832031 -7.0625 15.40625 -7.1875 15.90625 -7.4375 C 16.40625 -7.6875 16.851562 -8.03125 17.25 -8.46875 C 17.382812 -7.21875 17.601562 -6.007812 17.90625 -4.84375 C 18.21875 -3.675781 18.484375 -2.617188 18.703125 -1.671875 C 18.003906 -1.003906 17.03125 -0.453125 15.78125 -0.015625 C 14.53125 0.410156 13.238281 0.625 11.90625 0.625 C 8.78125 0.625 6.425781 -0.289062 4.84375 -2.125 C 3.257812 -3.96875 2.46875 -6.570312 2.46875 -9.9375 L 2.46875 -21.296875 Z M 0 -21.296875 "/></g></g></g><g fill="#ffffff" fill-opacity="1"><g transform="translate(129.199218, 57.718398)"><g><path d="M 15.703125 0.625 C 13.253906 0.625 11.117188 0.222656 9.296875 -0.578125 C 7.472656 -1.390625 5.96875 -2.5 4.78125 -3.90625 C 3.59375 -5.3125 2.707031 -6.929688 2.125 -8.765625 C 1.539062 -10.597656 1.25 -12.546875 1.25 -14.609375 C 1.25 -16.671875 1.554688 -18.617188 2.171875 -20.453125 C 2.785156 -22.296875 3.710938 -23.921875 4.953125 -25.328125 C 6.191406 -26.734375 7.734375 -27.835938 9.578125 -28.640625 C 11.429688 -29.441406 13.609375 -29.84375 16.109375 -29.84375 C 18.222656 -29.84375 20.070312 -29.40625 21.65625 -28.53125 C 23.25 -27.65625 24.484375 -26.53125 25.359375 -25.15625 C 26.234375 -23.78125 26.671875 -22.351562 26.671875 -20.875 C 26.671875 -19.476562 26.300781 -18.125 25.5625 -16.8125 C 24.832031 -15.507812 23.625 -14.445312 21.9375 -13.625 C 20.25 -12.8125 17.972656 -12.40625 15.109375 -12.40625 L 10.234375 -12.40625 C 10.566406 -10.925781 11.234375 -9.769531 12.234375 -8.9375 C 13.234375 -8.101562 14.515625 -7.6875 16.078125 -7.6875 C 17.109375 -7.6875 17.988281 -7.894531 18.71875 -8.3125 C 19.457031 -8.726562 20.070312 -9.207031 20.5625 -9.75 C 21.050781 -10.289062 21.390625 -10.742188 21.578125 -11.109375 C 22.273438 -10.023438 23.097656 -8.972656 24.046875 -7.953125 C 24.992188 -6.929688 25.898438 -6.035156 26.765625 -5.265625 C 25.535156 -3.316406 23.925781 -1.847656 21.9375 -0.859375 C 19.945312 0.128906 17.867188 0.625 15.703125 0.625 Z M 10.140625 -12.859375 C 11.484375 -13.109375 12.78125 -13.546875 14.03125 -14.171875 C 15.28125 -14.796875 16.316406 -15.582031 17.140625 -16.53125 C 17.960938 -17.476562 18.375 -18.550781 18.375 -19.75 C 18.375 -20.300781 18.175781 -20.84375 17.78125 -21.375 C 17.394531 -21.90625 16.753906 -22.171875 15.859375 -22.171875 C 15.054688 -22.171875 14.203125 -21.882812 13.296875 -21.3125 C 12.390625 -20.738281 11.613281 -19.890625 10.96875 -18.765625 C 10.332031 -17.640625 10.015625 -16.253906 10.015625 -14.609375 C 10.015625 -13.992188 10.054688 -13.410156 10.140625 -12.859375 Z M 10.140625 -12.859375 "/></g></g></g><g fill="#ffffff" fill-opacity="1"><g transform="translate(156.7897, 57.718398)"><g><path d="M 2 -31.484375 C 2 -31.785156 1.972656 -32.253906 1.921875 -32.890625 C 1.867188 -33.535156 1.710938 -34.207031 1.453125 -34.90625 C 1.203125 -35.601562 0.800781 -36.203125 0.25 -36.703125 C -0.300781 -37.203125 -1.082031 -37.453125 -2.09375 -37.453125 L -2.09375 -37.65625 C -1.0625 -37.707031 0.0390625 -37.894531 1.21875 -38.21875 C 2.40625 -38.539062 3.578125 -38.941406 4.734375 -39.421875 C 5.890625 -39.910156 6.972656 -40.410156 7.984375 -40.921875 C 9.003906 -41.441406 9.863281 -41.910156 10.5625 -42.328125 L 10.5625 -11.78125 C 10.5625 -9.882812 10.835938 -8.613281 11.390625 -7.96875 C 11.953125 -7.332031 12.75 -7.015625 13.78125 -7.015625 C 14.414062 -7.015625 14.984375 -7.140625 15.484375 -7.390625 C 15.984375 -7.640625 16.429688 -7.988281 16.828125 -8.4375 C 16.960938 -7.1875 17.179688 -5.972656 17.484375 -4.796875 C 17.796875 -3.628906 18.0625 -2.570312 18.28125 -1.625 C 17.59375 -0.957031 16.617188 -0.414062 15.359375 0 C 14.109375 0.414062 12.816406 0.625 11.484375 0.625 C 8.367188 0.625 6.015625 -0.285156 4.421875 -2.109375 C 2.835938 -3.929688 2.046875 -6.523438 2.046875 -9.890625 C 2.046875 -9.890625 2.046875 -10.257812 2.046875 -11 C 2.046875 -11.738281 2.046875 -12.71875 2.046875 -13.9375 C 2.046875 -15.164062 2.046875 -16.523438 2.046875 -18.015625 C 2.046875 -19.503906 2.035156 -21 2.015625 -22.5 C 2.003906 -24 2 -25.394531 2 -26.6875 C 2 -27.988281 2 -29.070312 2 -29.9375 C 2 -30.800781 2 -31.316406 2 -31.484375 Z M 2 -31.484375 "/></g></g></g><g fill="#000000" fill-opacity="1"><g transform="translate(175.080191, 57.718398)"><g><path d="M 21.421875 0.625 C 18.378906 0.625 15.632812 0.0820312 13.1875 -1 C 10.738281 -2.082031 8.640625 -3.578125 6.890625 -5.484375 C 5.140625 -7.390625 3.796875 -9.59375 2.859375 -12.09375 C 1.929688 -14.601562 1.46875 -17.296875 1.46875 -20.171875 C 1.46875 -23.035156 1.929688 -25.71875 2.859375 -28.21875 C 3.796875 -30.726562 5.140625 -32.9375 6.890625 -34.84375 C 8.640625 -36.75 10.738281 -38.238281 13.1875 -39.3125 C 15.632812 -40.382812 18.378906 -40.921875 21.421875 -40.921875 C 24.398438 -40.921875 27.140625 -40.5 29.640625 -39.65625 C 32.148438 -38.820312 34.210938 -37.515625 35.828125 -35.734375 C 35.460938 -34.867188 35.117188 -33.976562 34.796875 -33.0625 C 34.472656 -32.144531 34.1875 -31.296875 33.9375 -30.515625 C 33.6875 -29.734375 33.484375 -29.097656 33.328125 -28.609375 C 33.179688 -28.128906 33.109375 -27.890625 33.109375 -27.890625 C 33.109375 -27.890625 32.921875 -28.144531 32.546875 -28.65625 C 32.171875 -29.175781 31.570312 -29.757812 30.75 -30.40625 C 29.925781 -31.0625 28.875 -31.644531 27.59375 -32.15625 C 26.3125 -32.675781 24.769531 -32.9375 22.96875 -32.9375 C 20.820312 -32.9375 18.828125 -32.460938 16.984375 -31.515625 C 15.148438 -30.578125 13.671875 -29.160156 12.546875 -27.265625 C 11.421875 -25.367188 10.859375 -22.988281 10.859375 -20.125 C 10.859375 -18.894531 10.96875 -17.757812 11.1875 -16.71875 C 11.40625 -15.675781 11.726562 -14.722656 12.15625 -13.859375 C 12.007812 -16.203125 12.378906 -18.3125 13.265625 -20.1875 C 14.160156 -22.0625 15.453125 -23.554688 17.140625 -24.671875 C 18.828125 -25.785156 20.769531 -26.34375 22.96875 -26.34375 C 23.820312 -26.34375 24.671875 -26.238281 25.515625 -26.03125 C 26.367188 -25.820312 27.125 -25.535156 27.78125 -25.171875 C 28.4375 -24.804688 28.875 -24.414062 29.09375 -24 L 29.09375 -14.78125 C 28.257812 -15.5 27.09375 -16.148438 25.59375 -16.734375 C 24.09375 -17.328125 22.519531 -17.625 20.875 -17.625 C 19.207031 -17.625 17.703125 -17.40625 16.359375 -16.96875 C 15.023438 -16.539062 14.070312 -15.882812 13.5 -15 C 12.9375 -14.125 12.945312 -13.003906 13.53125 -11.640625 C 14.664062 -10.222656 16.054688 -9.160156 17.703125 -8.453125 C 19.347656 -7.742188 21.101562 -7.390625 22.96875 -7.390625 C 24.769531 -7.390625 26.3125 -7.644531 27.59375 -8.15625 C 28.875 -8.675781 29.925781 -9.257812 30.75 -9.90625 C 31.570312 -10.5625 32.171875 -11.144531 32.546875 -11.65625 C 32.921875 -12.175781 33.109375 -12.4375 33.109375 -12.4375 C 33.109375 -12.4375 33.179688 -12.191406 33.328125 -11.703125 C 33.484375 -11.222656 33.6875 -10.59375 33.9375 -9.8125 C 34.1875 -9.03125 34.472656 -8.179688 34.796875 -7.265625 C 35.117188 -6.347656 35.460938 -5.457031 35.828125 -4.59375 C 34.210938 -2.8125 32.148438 -1.492188 29.640625 -0.640625 C 27.140625 0.203125 24.398438 0.625 21.421875 0.625 Z M 21.421875 0.625 "/></g></g></g><g fill="#000000" fill-opacity="1"><g transform="translate(210.893561, 57.718398)"><g><path d="M 2.296875 -35.0625 C 2.296875 -36.125 2.171875 -37.15625 1.921875 -38.15625 C 1.671875 -39.15625 1.304688 -39.863281 0.828125 -40.28125 L 18.28125 -40.28125 C 19.925781 -40.28125 21.578125 -40.007812 23.234375 -39.46875 C 24.890625 -38.925781 26.398438 -38.113281 27.765625 -37.03125 C 29.128906 -35.945312 30.21875 -34.601562 31.03125 -33 C 31.851562 -31.40625 32.265625 -29.550781 32.265625 -27.4375 C 32.265625 -24.539062 31.476562 -22.128906 29.90625 -20.203125 C 28.34375 -18.285156 26.320312 -16.953125 23.84375 -16.203125 L 26.21875 -9.890625 C 27.382812 -6.804688 28.46875 -4.484375 29.46875 -2.921875 C 30.476562 -1.359375 31.367188 -0.382812 32.140625 0 L 18.375 0 C 18.675781 -0.363281 18.847656 -0.878906 18.890625 -1.546875 C 18.929688 -2.210938 18.757812 -3.019531 18.375 -3.96875 L 11.6875 -22.5 L 11.6875 -5.171875 C 11.6875 -4.140625 11.8125 -3.125 12.0625 -2.125 C 12.3125 -1.125 12.675781 -0.414062 13.15625 0 L 0.828125 0 C 1.304688 -0.414062 1.671875 -1.128906 1.921875 -2.140625 C 2.171875 -3.160156 2.296875 -4.1875 2.296875 -5.21875 Z M 11.6875 -22.5 L 17.65625 -22.5 C 18.851562 -22.5 19.84375 -22.75 20.625 -23.25 C 21.40625 -23.75 21.988281 -24.378906 22.375 -25.140625 C 22.769531 -25.910156 22.96875 -26.675781 22.96875 -27.4375 C 22.96875 -28.738281 22.523438 -29.882812 21.640625 -30.875 C 20.765625 -31.863281 19.46875 -32.359375 17.75 -32.359375 L 11.6875 -32.359375 Z M 11.6875 -22.5 "/></g></g></g><g fill="#000000" fill-opacity="1"><g transform="translate(243.993794, 57.718398)"><g><path d="M 0.828125 0 C 1.304688 -0.414062 1.671875 -1.128906 1.921875 -2.140625 C 2.171875 -3.160156 2.296875 -4.1875 2.296875 -5.21875 L 2.296875 -35.0625 C 2.296875 -36.125 2.171875 -37.15625 1.921875 -38.15625 C 1.671875 -39.15625 1.304688 -39.863281 0.828125 -40.28125 L 15.734375 -40.28125 C 19.296875 -40.28125 22.328125 -39.644531 24.828125 -38.375 C 27.335938 -37.113281 29.257812 -35.367188 30.59375 -33.140625 C 31.9375 -30.921875 32.609375 -28.378906 32.609375 -25.515625 C 32.609375 -23.453125 32.257812 -21.492188 31.5625 -19.640625 C 30.863281 -17.785156 29.878906 -16.148438 28.609375 -14.734375 C 27.347656 -13.316406 25.835938 -12.195312 24.078125 -11.375 C 22.328125 -10.550781 20.382812 -10.140625 18.25 -10.140625 C 17.851562 -10.140625 17.457031 -10.195312 17.0625 -10.3125 C 16.675781 -10.425781 16.359375 -10.550781 16.109375 -10.6875 L 11.6875 -20.828125 L 11.6875 -5.171875 C 11.6875 -4.140625 11.8125 -3.125 12.0625 -2.125 C 12.3125 -1.125 12.675781 -0.414062 13.15625 0 Z M 16.453125 -32.359375 L 11.6875 -32.359375 L 11.6875 -22.421875 C 12.300781 -21.054688 13.023438 -20 13.859375 -19.25 C 14.691406 -18.5 15.847656 -18.125 17.328125 -18.125 C 18.691406 -18.125 19.800781 -18.460938 20.65625 -19.140625 C 21.519531 -19.828125 22.160156 -20.734375 22.578125 -21.859375 C 23.003906 -22.984375 23.21875 -24.203125 23.21875 -25.515625 C 23.21875 -26.679688 22.972656 -27.785156 22.484375 -28.828125 C 21.992188 -29.867188 21.25 -30.71875 20.25 -31.375 C 19.25 -32.03125 17.984375 -32.359375 16.453125 -32.359375 Z M 16.453125 -32.359375 "/></g></g></g></svg>