<svg xmlns="http://www.w3.org/2000/svg" xmlns:xlink="http://www.w3.org/1999/xlink" width="500" zoomAndPan="magnify" viewBox="0 0 375 374.999991" height="500" preserveAspectRatio="xMidYMid meet" version="1.0"><rect x="-37.5" width="450" fill="#ffffff" y="-37.499999" height="449.999989" fill-opacity="1"/><rect x="-37.5" width="450" fill="#ffffff" y="-37.499999" height="449.999989" fill-opacity="1"/><rect x="-37.5" width="450" fill="#2cb5a0" y="-37.499999" height="449.999989" fill-opacity="1"/><path fill="#fffffe" d="M 108.183594 322.253906 L 266.8125 322.253906 L 266.8125 146.8125 L 108.183594 146.8125 Z M 269.742188 328.113281 L 105.257812 328.113281 C 103.636719 328.113281 102.328125 326.800781 102.328125 325.183594 L 102.328125 143.882812 C 102.328125 142.265625 103.636719 140.953125 105.257812 140.953125 L 269.742188 140.953125 C 271.363281 140.953125 272.671875 142.265625 272.671875 143.882812 L 272.671875 325.183594 C 272.671875 326.800781 271.363281 328.113281 269.742188 328.113281 " fill-opacity="1" fill-rule="evenodd"/><path fill="#fffffe" d="M 92.988281 125.003906 C 88.589844 125.003906 85.011719 128.582031 85.011719 132.976562 C 85.011719 137.378906 88.589844 140.953125 92.988281 140.953125 L 282.011719 140.953125 C 286.410156 140.953125 289.988281 137.378906 289.988281 132.976562 C 289.988281 128.582031 286.410156 125.003906 282.011719 125.003906 Z M 282.011719 146.8125 L 92.988281 146.8125 C 85.359375 146.8125 79.152344 140.605469 79.152344 132.976562 C 79.152344 125.351562 85.359375 119.144531 92.988281 119.144531 L 282.011719 119.144531 C 289.640625 119.144531 295.847656 125.351562 295.847656 132.976562 C 295.847656 140.605469 289.640625 146.8125 282.011719 146.8125 " fill-opacity="1" fill-rule="evenodd"/><path fill="#fffffe" d="M 122.273438 187.425781 L 141.195312 187.425781 L 141.195312 168.5 L 122.273438 168.5 Z M 144.125 193.285156 L 119.34375 193.285156 C 117.722656 193.285156 116.414062 191.972656 116.414062 190.355469 L 116.414062 165.570312 C 116.414062 163.953125 117.722656 162.640625 119.34375 162.640625 L 144.125 162.640625 C 145.742188 162.640625 147.054688 163.953125 147.054688 165.570312 L 147.054688 190.355469 C 147.054688 191.972656 145.746094 193.285156 144.125 193.285156 " fill-opacity="1" fill-rule="evenodd"/><path fill="#fffffe" d="M 159.449219 187.425781 L 178.375 187.425781 L 178.375 168.5 L 159.449219 168.5 Z M 181.304688 193.285156 L 156.519531 193.285156 C 154.902344 193.285156 153.589844 191.972656 153.589844 190.355469 L 153.589844 165.570312 C 153.589844 163.953125 154.902344 162.640625 156.519531 162.640625 L 181.304688 162.640625 C 182.921875 162.640625 184.234375 163.953125 184.234375 165.570312 L 184.234375 190.355469 C 184.234375 191.972656 182.921875 193.285156 181.304688 193.285156 " fill-opacity="1" fill-rule="evenodd"/><path fill="#fffffe" d="M 196.625 187.425781 L 215.550781 187.425781 L 215.550781 168.5 L 196.625 168.5 Z M 218.480469 193.285156 L 193.695312 193.285156 C 192.078125 193.285156 190.765625 191.972656 190.765625 190.355469 L 190.765625 165.570312 C 190.765625 163.953125 192.078125 162.640625 193.695312 162.640625 L 218.480469 162.640625 C 220.097656 162.640625 221.410156 163.953125 221.410156 165.570312 L 221.410156 190.355469 C 221.410156 191.972656 220.097656 193.285156 218.480469 193.285156 " fill-opacity="1" fill-rule="evenodd"/><path fill="#fffffe" d="M 233.800781 187.425781 L 252.726562 187.425781 L 252.726562 168.5 L 233.800781 168.5 Z M 255.65625 193.285156 L 230.871094 193.285156 C 229.253906 193.285156 227.945312 191.972656 227.945312 190.355469 L 227.945312 165.570312 C 227.945312 163.953125 229.253906 162.640625 230.871094 162.640625 L 255.65625 162.640625 C 257.277344 162.640625 258.585938 163.953125 258.585938 165.570312 L 258.585938 190.355469 C 258.585938 191.972656 257.277344 193.285156 255.65625 193.285156 " fill-opacity="1" fill-rule="evenodd"/><path fill="#fffffe" d="M 122.273438 234.226562 L 141.195312 234.226562 L 141.195312 215.300781 L 122.273438 215.300781 Z M 144.125 240.085938 L 119.34375 240.085938 C 117.722656 240.085938 116.414062 238.773438 116.414062 237.15625 L 116.414062 212.371094 C 116.414062 210.753906 117.722656 209.441406 119.34375 209.441406 L 144.125 209.441406 C 145.742188 209.441406 147.054688 210.753906 147.054688 212.371094 L 147.054688 237.15625 C 147.054688 238.773438 145.746094 240.085938 144.125 240.085938 " fill-opacity="1" fill-rule="evenodd"/><path fill="#fffffe" d="M 159.449219 234.226562 L 178.375 234.226562 L 178.375 215.300781 L 159.449219 215.300781 Z M 181.304688 240.085938 L 156.519531 240.085938 C 154.902344 240.085938 153.589844 238.773438 153.589844 237.15625 L 153.589844 212.371094 C 153.589844 210.753906 154.902344 209.441406 156.519531 209.441406 L 181.304688 209.441406 C 182.921875 209.441406 184.234375 210.753906 184.234375 212.371094 L 184.234375 237.15625 C 184.234375 238.773438 182.921875 240.085938 181.304688 240.085938 " fill-opacity="1" fill-rule="evenodd"/><path fill="#fffffe" d="M 196.625 234.226562 L 215.550781 234.226562 L 215.550781 215.300781 L 196.625 215.300781 Z M 218.480469 240.085938 L 193.695312 240.085938 C 192.078125 240.085938 190.765625 238.773438 190.765625 237.15625 L 190.765625 212.371094 C 190.765625 210.753906 192.078125 209.441406 193.695312 209.441406 L 218.480469 209.441406 C 220.097656 209.441406 221.410156 210.753906 221.410156 212.371094 L 221.410156 237.15625 C 221.410156 238.773438 220.097656 240.085938 218.480469 240.085938 " fill-opacity="1" fill-rule="evenodd"/><path fill="#fffffe" d="M 233.800781 234.226562 L 252.726562 234.226562 L 252.726562 215.300781 L 233.800781 215.300781 Z M 255.65625 240.085938 L 230.871094 240.085938 C 229.253906 240.085938 227.945312 238.773438 227.945312 237.15625 L 227.945312 212.371094 C 227.945312 210.753906 229.253906 209.441406 230.871094 209.441406 L 255.65625 209.441406 C 257.277344 209.441406 258.585938 210.753906 258.585938 212.371094 L 258.585938 237.15625 C 258.585938 238.773438 257.277344 240.085938 255.65625 240.085938 " fill-opacity="1" fill-rule="evenodd"/><path fill="#fffffe" d="M 122.273438 281.027344 L 141.195312 281.027344 L 141.195312 262.101562 L 122.273438 262.101562 Z M 144.125 286.886719 L 119.34375 286.886719 C 117.722656 286.886719 116.414062 285.578125 116.414062 283.957031 L 116.414062 259.175781 C 116.414062 257.554688 117.722656 256.246094 119.34375 256.246094 L 144.125 256.246094 C 145.742188 256.246094 147.054688 257.554688 147.054688 259.175781 L 147.054688 283.957031 C 147.054688 285.578125 145.746094 286.886719 144.125 286.886719 " fill-opacity="1" fill-rule="evenodd"/><path fill="#fffffe" d="M 233.800781 281.027344 L 252.726562 281.027344 L 252.726562 262.101562 L 233.800781 262.101562 Z M 255.65625 286.886719 L 230.871094 286.886719 C 229.253906 286.886719 227.945312 285.578125 227.945312 283.957031 L 227.945312 259.175781 C 227.945312 257.554688 229.253906 256.246094 230.871094 256.246094 L 255.65625 256.246094 C 257.277344 256.246094 258.585938 257.554688 258.585938 259.175781 L 258.585938 283.957031 C 258.585938 285.578125 257.277344 286.886719 255.65625 286.886719 " fill-opacity="1" fill-rule="evenodd"/><path fill="#fffffe" d="M 164.941406 322.253906 L 210.058594 322.253906 L 210.058594 267.476562 C 210.058594 264.515625 207.648438 262.101562 204.683594 262.101562 L 170.316406 262.101562 C 167.351562 262.101562 164.941406 264.515625 164.941406 267.476562 Z M 212.988281 328.113281 L 162.011719 328.113281 C 160.394531 328.113281 159.082031 326.800781 159.082031 325.183594 L 159.082031 267.476562 C 159.082031 261.28125 164.121094 256.246094 170.316406 256.246094 L 204.683594 256.246094 C 210.878906 256.246094 215.917969 261.28125 215.917969 267.476562 L 215.917969 325.183594 C 215.917969 326.800781 214.605469 328.113281 212.988281 328.113281 " fill-opacity="1" fill-rule="evenodd"/><path fill="#fffffe" d="M 187.5 328.113281 C 185.882812 328.113281 184.570312 326.800781 184.570312 325.183594 L 184.570312 259.175781 C 184.570312 257.554688 185.882812 256.246094 187.5 256.246094 C 189.117188 256.246094 190.429688 257.554688 190.429688 259.175781 L 190.429688 325.183594 C 190.429688 326.800781 189.117188 328.113281 187.5 328.113281 " fill-opacity="1" fill-rule="evenodd"/><path fill="#fffffe" d="M 129.007812 125.003906 C 127.390625 125.003906 126.078125 123.691406 126.078125 122.074219 L 126.078125 95.351562 C 126.078125 93.734375 127.390625 92.421875 129.007812 92.421875 C 130.625 92.421875 131.9375 93.734375 131.9375 95.351562 L 131.9375 122.074219 C 131.9375 123.691406 130.625 125.003906 129.007812 125.003906 " fill-opacity="1" fill-rule="evenodd"/><path fill="#fffffe" d="M 245.992188 125.003906 C 244.375 125.003906 243.0625 123.691406 243.0625 122.074219 L 243.0625 95.351562 C 243.0625 93.734375 244.375 92.421875 245.992188 92.421875 C 247.609375 92.421875 248.921875 93.734375 248.921875 95.351562 L 248.921875 122.074219 C 248.921875 123.691406 247.609375 125.003906 245.992188 125.003906 " fill-opacity="1" fill-rule="evenodd"/><path fill="#fffffe" d="M 130.070312 52.746094 C 119.132812 52.746094 110.234375 61.644531 110.234375 72.582031 C 110.234375 83.523438 119.132812 92.421875 130.070312 92.421875 L 244.929688 92.421875 C 255.867188 92.421875 264.765625 83.523438 264.765625 72.582031 C 264.765625 61.644531 255.867188 52.746094 244.929688 52.746094 Z M 244.929688 98.28125 L 130.070312 98.28125 C 115.902344 98.28125 104.375 86.753906 104.375 72.582031 C 104.375 58.414062 115.902344 46.886719 130.070312 46.886719 L 244.929688 46.886719 C 259.097656 46.886719 270.625 58.414062 270.625 72.582031 C 270.625 86.753906 259.097656 98.28125 244.929688 98.28125 " fill-opacity="1" fill-rule="evenodd"/><path fill="#fffffe" d="M 180.09375 85.941406 C 178.105469 85.941406 176.445312 85.640625 175.019531 85.019531 C 173.449219 84.347656 172.183594 83.292969 171.265625 81.902344 C 170.363281 80.527344 169.886719 78.972656 169.84375 77.277344 C 169.804688 75.660156 171.085938 74.316406 172.703125 74.277344 C 174.320312 74.234375 175.664062 75.515625 175.703125 77.132812 C 175.71875 77.726562 175.867188 78.234375 176.164062 78.683594 C 176.445312 79.109375 176.820312 79.417969 177.34375 79.640625 C 178.023438 79.9375 178.945312 80.085938 180.09375 80.085938 C 180.890625 80.085938 181.59375 79.949219 182.179688 79.679688 C 182.644531 79.464844 182.980469 79.195312 183.195312 78.859375 C 183.414062 78.527344 183.507812 78.226562 183.507812 77.871094 C 183.507812 77.4375 183.394531 77.210938 183.296875 77.0625 C 183.136719 76.828125 182.777344 76.570312 182.292969 76.34375 C 182.042969 76.230469 181.238281 75.933594 178.988281 75.445312 C 176.84375 74.984375 175.414062 74.574219 174.488281 74.15625 C 174.480469 74.152344 174.476562 74.148438 174.46875 74.144531 C 172.980469 73.457031 171.835938 72.523438 171.058594 71.378906 C 170.25 70.175781 169.84375 68.804688 169.84375 67.292969 C 169.84375 65.808594 170.265625 64.402344 171.101562 63.117188 C 171.925781 61.84375 173.097656 60.851562 174.585938 60.164062 C 175.953125 59.539062 177.476562 59.222656 179.117188 59.222656 C 181.105469 59.222656 182.765625 59.527344 184.195312 60.148438 C 185.761719 60.824219 187.03125 61.875 187.945312 63.265625 C 188.847656 64.640625 189.324219 66.195312 189.367188 67.890625 C 189.40625 69.507812 188.125 70.851562 186.507812 70.890625 C 184.894531 70.933594 183.550781 69.652344 183.507812 68.03125 C 183.496094 67.4375 183.34375 66.933594 183.050781 66.484375 C 182.769531 66.054688 182.390625 65.75 181.867188 65.523438 C 181.1875 65.230469 180.269531 65.082031 179.117188 65.082031 C 178.320312 65.082031 177.621094 65.21875 177.03125 65.488281 C 176.566406 65.703125 176.230469 65.972656 176.015625 66.304688 C 175.800781 66.640625 175.703125 66.945312 175.703125 67.292969 C 175.703125 67.730469 175.816406 67.957031 175.917969 68.101562 C 176.074219 68.339844 176.433594 68.597656 176.921875 68.824219 C 177.167969 68.9375 177.972656 69.234375 180.222656 69.71875 C 182.367188 70.179688 183.796875 70.589844 184.71875 71.011719 C 184.730469 71.011719 184.738281 71.019531 184.742188 71.019531 C 186.230469 71.710938 187.378906 72.640625 188.152344 73.789062 C 188.960938 74.988281 189.367188 76.359375 189.367188 77.871094 C 189.367188 79.359375 188.945312 80.765625 188.113281 82.046875 C 187.285156 83.324219 186.113281 84.316406 184.625 85 C 183.257812 85.628906 181.734375 85.941406 180.09375 85.941406 " fill-opacity="1" fill-rule="evenodd"/><path fill="#fffffe" d="M 156.652344 65.808594 C 154.707031 65.808594 153.246094 66.390625 152.058594 67.640625 C 150.851562 68.910156 150.265625 70.730469 150.265625 73.207031 C 150.265625 74.476562 150.53125 75.644531 151.082031 76.78125 C 151.585938 77.8125 152.296875 78.597656 153.257812 79.1875 C 154.238281 79.792969 155.34375 80.082031 156.640625 80.082031 C 157.839844 80.082031 158.925781 79.808594 159.957031 79.246094 C 160.898438 78.726562 161.613281 77.972656 162.140625 76.941406 C 162.726562 75.796875 163.011719 74.503906 163.011719 72.976562 C 163.011719 71.488281 162.734375 70.171875 162.183594 69.058594 C 161.675781 68.03125 160.964844 67.253906 160.007812 66.683594 C 159.023438 66.09375 157.921875 65.808594 156.652344 65.808594 Z M 156.640625 85.941406 C 154.261719 85.941406 152.089844 85.347656 150.191406 84.179688 C 148.28125 83.011719 146.804688 81.382812 145.8125 79.339844 C 144.878906 77.421875 144.40625 75.355469 144.40625 73.207031 C 144.40625 69.210938 145.550781 65.980469 147.8125 63.601562 C 150.113281 61.179688 153.089844 59.949219 156.652344 59.949219 C 158.972656 59.949219 161.113281 60.523438 163.007812 61.648438 C 164.945312 62.804688 166.429688 64.425781 167.4375 66.464844 C 168.386719 68.390625 168.871094 70.582031 168.871094 72.976562 C 168.871094 75.421875 168.359375 77.652344 167.355469 79.613281 C 166.292969 81.6875 164.753906 83.292969 162.777344 84.378906 C 160.882812 85.417969 158.820312 85.941406 156.640625 85.941406 " fill-opacity="1" fill-rule="evenodd"/><path fill="#fffffe" d="M 126.199219 85.613281 C 124.582031 85.613281 123.269531 84.300781 123.269531 82.683594 L 123.269531 63.222656 C 123.269531 61.609375 124.582031 60.292969 126.199219 60.292969 C 127.816406 60.292969 129.128906 61.609375 129.128906 63.222656 L 129.128906 82.683594 C 129.128906 84.300781 127.816406 85.613281 126.199219 85.613281 " fill-opacity="1" fill-rule="evenodd"/><path fill="#fffffe" d="M 138.890625 85.613281 C 137.269531 85.613281 135.960938 84.300781 135.960938 82.683594 L 135.960938 63.222656 C 135.960938 61.609375 137.269531 60.292969 138.890625 60.292969 C 140.507812 60.292969 141.816406 61.609375 141.816406 63.222656 L 141.816406 82.683594 C 141.816406 84.300781 140.507812 85.613281 138.890625 85.613281 " fill-opacity="1" fill-rule="evenodd"/><path fill="#fffffe" d="M 138.890625 75.882812 L 126.199219 75.882812 C 124.582031 75.882812 123.269531 74.570312 123.269531 72.953125 C 123.269531 71.335938 124.582031 70.023438 126.199219 70.023438 L 138.890625 70.023438 C 140.507812 70.023438 141.816406 71.335938 141.816406 72.953125 C 141.816406 74.570312 140.507812 75.882812 138.890625 75.882812 " fill-opacity="1" fill-rule="evenodd"/><path fill="#fffffe" d="M 208.667969 67.300781 L 193.246094 67.300781 C 191.628906 67.300781 190.316406 65.992188 190.316406 64.371094 C 190.316406 62.753906 191.628906 61.441406 193.246094 61.441406 L 208.667969 61.441406 C 210.285156 61.441406 211.597656 62.753906 211.597656 64.371094 C 211.597656 65.992188 210.285156 67.300781 208.667969 67.300781 " fill-opacity="1" fill-rule="evenodd"/><path fill="#fffffe" d="M 200.941406 85.613281 C 199.324219 85.613281 198.015625 84.300781 198.015625 82.683594 L 198.015625 64.371094 C 198.015625 62.753906 199.324219 61.441406 200.941406 61.441406 C 202.558594 61.441406 203.871094 62.753906 203.871094 64.371094 L 203.871094 82.683594 C 203.871094 84.300781 202.558594 85.613281 200.941406 85.613281 " fill-opacity="1" fill-rule="evenodd"/><path fill="#fffffe" d="M 229.085938 84.425781 C 229.085938 84.425781 229.085938 84.425781 229.082031 84.425781 L 216.21875 84.421875 C 214.605469 84.421875 213.292969 83.117188 213.289062 81.5 L 213.273438 72.675781 C 213.273438 72.671875 213.273438 72.671875 213.273438 72.667969 C 213.273438 72.664062 213.273438 72.660156 213.273438 72.660156 L 213.289062 63.835938 C 213.292969 62.222656 214.605469 60.910156 216.21875 60.910156 L 229.082031 60.910156 C 229.085938 60.910156 229.085938 60.910156 229.085938 60.910156 C 230.703125 60.910156 232.011719 62.222656 232.015625 63.839844 C 232.015625 65.457031 230.703125 66.769531 229.085938 66.769531 L 219.144531 66.769531 L 219.136719 69.558594 L 228.355469 69.558594 C 229.972656 69.558594 231.285156 70.871094 231.285156 72.488281 C 231.285156 74.105469 229.972656 75.417969 228.355469 75.417969 L 219.136719 75.417969 L 219.144531 78.566406 L 229.085938 78.566406 C 230.703125 78.566406 232.015625 79.878906 232.015625 81.496094 C 232.015625 83.113281 230.703125 84.425781 229.085938 84.425781 " fill-opacity="1" fill-rule="evenodd"/><path fill="#fffffe" d="M 248.800781 84.527344 L 237.929688 84.527344 C 236.3125 84.527344 235 83.214844 235 81.597656 L 235 63.222656 C 235 61.609375 236.3125 60.292969 237.929688 60.292969 C 239.546875 60.292969 240.859375 61.609375 240.859375 63.222656 L 240.859375 78.667969 L 248.800781 78.667969 C 250.417969 78.667969 251.730469 79.980469 251.730469 81.597656 C 251.730469 83.214844 250.417969 84.527344 248.800781 84.527344 " fill-opacity="1" fill-rule="evenodd"/></svg>